<svg width="35" height="52" viewBox="0 0 35 52" fill="none" xmlns="http://www.w3.org/2000/svg">
<path d="M19.75 20.1038H34.5625L32.9167 25.7705H19.75V51.2705H13.1667V25.7705H0V20.1038H13.1667V14.7998C13.1667 9.74801 13.7789 7.91484 14.9244 6.06751C16.0469 4.24229 17.7809 2.7497 19.9014 1.78351C22.0476 0.797508 24.1773 0.270508 30.0463 0.270508C31.7646 0.270508 33.2722 0.412175 34.5625 0.695508V5.93717H30.0463C25.6882 5.93717 24.3616 6.15817 23.0087 6.78151C22.0081 7.24051 21.2642 7.88084 20.7309 8.74217C20.0068 9.90667 19.75 11.0485 19.75 14.7998V20.1038Z" fill="white"/>
</svg>
