<svg width="79" height="74" viewBox="0 0 79 74" fill="none" xmlns="http://www.w3.org/2000/svg">
<path d="M39.5 27.7498C36.881 27.7498 34.3692 28.7244 32.5173 30.4591C30.6654 32.1938 29.625 34.5466 29.625 36.9998C29.625 39.4531 30.6654 41.8059 32.5173 43.5406C34.3692 45.2753 36.881 46.2498 39.5 46.2498C42.119 46.2498 44.6307 45.2753 46.4827 43.5406C48.3346 41.8059 49.375 39.4531 49.375 36.9998C49.375 34.5466 48.3346 32.1938 46.4827 30.4591C44.6307 28.7244 42.119 27.7498 39.5 27.7498ZM39.5 21.5832C43.865 21.5832 48.0512 23.2074 51.1378 26.0986C54.2243 28.9898 55.9583 32.9111 55.9583 36.9998C55.9583 41.0886 54.2243 45.0099 51.1378 47.9011C48.0512 50.7923 43.865 52.4165 39.5 52.4165C35.135 52.4165 30.9487 50.7923 27.8622 47.9011C24.7756 45.0099 23.0416 41.0886 23.0416 36.9998C23.0416 32.9111 24.7756 28.9898 27.8622 26.0986C30.9487 23.2074 35.135 21.5832 39.5 21.5832ZM60.8958 20.8123C60.8958 21.8345 60.4623 22.8148 59.6907 23.5376C58.919 24.2604 57.8725 24.6665 56.7812 24.6665C55.69 24.6665 54.6434 24.2604 53.8718 23.5376C53.1001 22.8148 52.6666 21.8345 52.6666 20.8123C52.6666 19.7901 53.1001 18.8098 53.8718 18.087C54.6434 17.3642 55.69 16.9582 56.7812 16.9582C57.8725 16.9582 58.919 17.3642 59.6907 18.087C60.4623 18.8098 60.8958 19.7901 60.8958 20.8123ZM39.5 12.3332C31.3564 12.3332 30.0266 12.3548 26.2379 12.512C23.6572 12.6261 21.9258 12.9498 20.3194 13.5357C18.8909 14.0537 17.8606 14.6734 16.7644 15.7033C15.7342 16.6357 14.942 17.774 14.4471 19.0333C13.8217 20.5441 13.4761 22.1628 13.3576 24.5771C13.1864 27.9811 13.1666 29.1713 13.1666 36.9998C13.1666 44.628 13.1897 45.8737 13.3576 49.4226C13.4794 51.8368 13.825 53.4618 14.4471 54.9633C15.0067 56.3046 15.665 57.2697 16.7579 58.2933C17.8671 59.3293 18.8974 59.9491 20.3129 60.4609C21.9389 61.0498 23.6704 61.3767 26.2379 61.4877C29.8719 61.648 31.1424 61.6665 39.5 61.6665C47.6436 61.6665 48.9734 61.6449 52.7621 61.4877C55.3362 61.3736 57.0709 61.0498 58.6772 60.4671C60.1025 59.946 61.1394 59.3263 62.2322 58.3026C63.3415 57.2635 64.0031 56.2984 64.5496 54.9726C65.175 53.4525 65.5239 51.8276 65.6424 49.4226C65.8136 46.0186 65.8333 44.8284 65.8333 36.9998C65.8333 29.3717 65.8103 28.126 65.6424 24.5771C65.5206 22.1659 65.175 20.5379 64.5496 19.0333C64.0535 17.7753 63.2628 16.6374 62.2355 15.7033C61.2406 14.7377 60.0252 13.9956 58.6805 13.5326C57.0676 12.9468 55.3362 12.623 52.7621 12.512C49.1281 12.3517 47.8575 12.3332 39.5 12.3332ZM39.5 6.1665C48.4434 6.1665 49.5593 6.19734 53.0682 6.3515C56.5739 6.50567 58.9603 7.02059 61.0604 7.78525C63.2329 8.56842 65.0631 9.62909 66.8932 11.3403C68.567 12.8817 69.8622 14.7462 70.6885 16.804C71.5016 18.7681 72.0546 21.0066 72.2191 24.2903C72.3739 27.5772 72.4166 28.6224 72.4166 36.9998C72.4166 45.3773 72.3837 46.4225 72.2191 49.7093C72.0546 52.9931 71.5016 55.2285 70.6885 57.1957C69.8645 59.2546 68.5691 61.1196 66.8932 62.6593C65.2473 64.2267 63.257 65.4397 61.0604 66.2144C58.9636 66.976 56.5739 67.494 53.0682 67.6482C49.5593 67.7931 48.4434 67.8332 39.5 67.8332C30.5565 67.8332 29.4406 67.8023 25.9317 67.6482C22.4261 67.494 20.0396 66.976 17.9396 66.2144C15.7418 65.442 13.751 64.2286 12.1067 62.6593C10.4326 61.1182 9.13742 59.2537 8.31144 57.1957C7.49511 55.2316 6.9454 52.9931 6.78081 49.7093C6.6261 46.4225 6.58331 45.3773 6.58331 36.9998C6.58331 28.6224 6.61623 27.5772 6.78081 24.2903C6.9454 21.0035 7.49511 18.7712 8.31144 16.804C9.13513 14.7449 10.4306 12.8799 12.1067 11.3403C13.7515 9.77163 15.7421 8.55834 17.9396 7.78525C20.0396 7.02059 22.4228 6.50567 25.9317 6.3515C29.4406 6.20659 30.5565 6.1665 39.5 6.1665Z" fill="white"/>
</svg>
