<svg width="68" height="61" viewBox="0 0 68 61" fill="none" xmlns="http://www.w3.org/2000/svg">
<path d="M59.8604 11.4184C59.602 10.2823 58.8676 9.4245 58.0278 9.16144C56.542 8.6925 49.3 7.625 34 7.625C18.7 7.625 11.4648 8.6925 9.9654 9.16144C9.1358 9.42069 8.4014 10.2785 8.1396 11.4184C7.769 13.0349 6.8 19.8098 6.8 30.5C6.8 41.1902 7.769 47.9613 8.1396 49.5854C8.398 50.7177 9.1324 51.5755 9.9688 51.8348C11.4648 52.3075 18.7 53.375 34 53.375C49.3 53.375 56.5386 52.3075 58.0346 51.8386C58.8642 51.5793 59.5986 50.7215 59.8604 49.5816C60.231 47.9651 61.2 41.175 61.2 30.5C61.2 19.825 60.231 13.0387 59.8604 11.4184ZM66.4462 9.52363C68 16.3175 68 30.5 68 30.5C68 30.5 68 44.6825 66.4462 51.4764C65.5826 55.2317 63.0564 58.1864 59.857 59.1853C54.0464 61 34 61 34 61C34 61 13.9638 61 8.143 59.1853C4.93 58.1711 2.4072 55.2203 1.5538 51.4764C1.01328e-07 44.6825 0 30.5 0 30.5C0 30.5 1.01328e-07 16.3175 1.5538 9.52363C2.4174 5.76831 4.9436 2.81362 8.143 1.81475C13.9638 -6.81728e-07 34 0 34 0C34 0 54.0464 -6.81728e-07 59.857 1.81475C63.07 2.82887 65.5928 5.77975 66.4462 9.52363ZM27.2 43.8438V17.1562L47.6 30.5L27.2 43.8438Z" fill="white"/>
</svg>
